<?xml version="1.0" encoding="utf-8"?>
<!-- Generator: Adobe Illustrator 19.2.0, SVG Export Plug-In . SVG Version: 6.00 Build 0)  -->
<svg version="1.1" id="identify" xmlns="http://www.w3.org/2000/svg" xmlns:xlink="http://www.w3.org/1999/xlink" x="0px" y="0px"
	 viewBox="0 0 514.4 257.2" style="enable-background:new 0 0 514.4 257.2;" xml:space="preserve">
<style type="text/css">
	.st0{fill:url(#SVGID_1_);}
	.st1{fill:url(#SVGID_2_);}
	.st2{fill:url(#SVGID_3_);}
	.st3{fill:url(#SVGID_4_);}
	.st4{fill:url(#SVGID_5_);}
	.st5{fill:url(#SVGID_6_);}
	.st6{fill:url(#SVGID_7_);}
	.st7{fill:url(#SVGID_8_);}
	.st8{fill:url(#SVGID_9_);}
	.st9{fill:url(#SVGID_10_);}
	.st10{fill:url(#SVGID_11_);}
	.st11{fill:url(#SVGID_12_);}
	.st12{fill:url(#SVGID_13_);}
	.st13{fill:url(#SVGID_14_);}
	.st14{fill:url(#SVGID_15_);}
	.st15{fill:url(#SVGID_16_);}
	.st16{fill:url(#SVGID_17_);}
	.st17{fill:url(#SVGID_18_);}
	.st18{fill:url(#SVGID_19_);}
	.st19{fill:url(#SVGID_20_);}
</style>
<g>
	<g>
		<linearGradient id="SVGID_1_" gradientUnits="userSpaceOnUse" x1="257.4238" y1="12.5365" x2="257.4238" y2="250.0312">
			<stop  offset="0" style="stop-color:#FFFFFF"/>
			<stop  offset="1" style="stop-color:#FFA1D7"/>
		</linearGradient>
		<path class="st0" d="M88,16.4c-1.5-5-6.1-8.1-11.3-7.9C70.2,8.8,66,14,62.5,18.8C53.9,30.3,46.1,42.4,39.2,55
			c-14,25.6-24.5,53.2-30.9,81.6c-2.6,11.3-6.9,25.3-3.7,36.9c1.4,5,4.6,9.3,9.6,11.1c6.2,2.1,13-0.4,18.6-3.1
			c22.9-11.1,33.4-37.5,41.4-60c12.3-34.6,20.4-70.5,28.5-106.3c1.4-6.3-7.8-8.9-9.6-2.7c-10.5,35.8-16.6,72.8-18.2,110
			c-0.6,13.7-2.6,35.3,9.8,44.9c12.5,9.7,25.7-17.6,29.9-25.8c7.6-14.8,15.4-33.5,32.9-38.7c-2.1-1.6-4.2-3.2-6.3-4.8
			c-1,19.4-3,38.7-6.2,57.8c-1,6.2,8,9,9.6,2.7c2.4-9.5,6-18.5,10.8-27c2.5-4.3,5.3-8.5,8.4-12.5c1.6-2,3.2-3.9,4.9-5.8
			c0.9-1,3.7-4.8,4.6-5.1c0.3-0.1-0.2,10.5-0.5,12.3c-0.7,4.7-1.8,9.4-2.4,14.1c-1.3,8.9-1.3,17.5,3.2,25.6c1.5,2.7,5.8,3.4,7.9,1
			c15.6-18.1,33.7-33.9,53.8-46.8c4.5-2.9,1.7-11.3-3.9-9.1c-13.7,5.3-23.5,16.5-29.7,29.6c-4.8,10.1-8.3,26,3.8,32.6
			c2.1,1.1,4.4,0.8,6.1-0.8c16.2-14.6,28.4-32.8,36.3-53.1c-3.3-0.4-6.5-0.9-9.8-1.3c4.2,41.4-3.2,93.2-36.3,122.1
			c-6,5.2-20.4,16.1-26.1,5c-4.6-8.9,1.8-18.7,8-24.8c7-6.9,15.7-11.7,24.2-16.4c8.9-4.9,17.9-9.5,26.9-14.3
			c17.4-9.2,34.7-18.9,49.5-31.9c7.1-6.3,14.2-13.5,19.2-21.6c4.5-7.4,5.2-18.6-3.9-22.8c-9.3-4.3-16.3,5.4-20.2,12.5
			c-5.2,9.5-8.7,20.4-9.3,31.2c-0.6,9.8,6.2,15.4,15.7,14.5c10.8-1.1,20.1-7.1,28.5-13.5c18.3-14.1,34.1-31.1,46.8-50.4
			c13.3-20.2,25.2-44.1,24.5-68.8c-0.1-2.5-2.2-5.2-5-5c-7.7,0.7-13.4,5.1-18.1,10.9c-5.4,6.7-10.2,14-14.6,21.4
			c-8.8,15-15.8,31.1-20.5,47.8c-3.2,11.2-11,32.8,2.1,40.7c13.3,8,29.6-10,38.4-18c12.2-11,25.3-24,42.5-26c2.7-0.3,4.9-2,5-5
			c0.2-6.4-5.6-10.8-11.7-9.9c-6.3,0.9-11.4,6.5-15.5,10.9c-5.1,5.4-9.7,11.5-13.5,18c-3.2,5.5-7.2,12.1-7.8,18.6
			c-0.6,5.9,2.6,11.7,8.9,12.4c6.9,0.8,12.5-4.7,17.1-9.1c12.3-11.6,23.8-24,34.7-37c-2.8-1.6-5.6-3.2-8.4-4.9
			c-2.9,7.6-1.9,16.3,2.2,23.4c4.8,8.3,13,12.4,22.3,13.5c21.9,2.5,45.3-3.5,65.2-12.4c5.9-2.6,0.8-11.3-5-8.6
			c-16.1,7.2-33.7,11.2-51.4,11.4c-7.5,0.1-15.9-0.3-21-6.7c-4.1-5.2-4.9-11.8-2.7-17.9c1.7-4.6-5.2-8.6-8.4-4.9
			c-6.5,7.8-13.2,15.4-20.3,22.7c-3.6,3.8-7.3,7.5-11.1,11.1c-2.2,2.1-7.9,9.5-11.3,9.3c-2.9-0.2,1.1-7.7,2-9.4c2-4.2,4.4-8.2,7-12
			c2.5-3.7,5.4-7.2,8.4-10.4c1.7-1.8,3.4-3.5,5.3-5.1c0.3-0.2,5-3.6,5-2.9c1.7-1.7,3.3-3.3,5-5c-26.2,3-42.4,24.3-61.9,39.5
			c-3.7,2.9-13.6,10.8-15.8,2.7c-1.6-5.9,0.9-13.2,2.3-18.9c3.7-14.9,9.1-29.4,16.1-43.1c3.8-7.4,8.1-14.6,12.8-21.4
			c3.8-5.6,9.1-15.1,16.7-15.7c-1.7-1.7-3.3-3.3-5-5c0.6,21.2-9.1,41.3-20,59c-10.4,16.9-23.5,32.1-38.5,45.2
			c-7.5,6.5-15.9,13.8-25.4,17.2c-3.2,1.1-10.8,3.9-11.7-0.9c-0.9-4.4,1.3-10.8,2.6-15c1.5-5.2,3.6-10.1,6.3-14.7
			c1.1-1.9,6.7-11,8-4.7c0.9,4.5-4.3,9.9-6.9,13c-2.9,3.5-6,6.8-9.4,10c-13.5,12.8-29.7,22.1-46,30.9c-16.3,8.7-33.8,16.3-48.8,27.1
			c-13.2,9.6-27.3,25.9-19.5,43.2c3.8,8.5,12.4,12.4,21.5,10.6c8.9-1.8,16.8-8.1,23.3-14.2c33-31.2,41.3-84,36.9-127.1
			c-0.6-5.7-7.7-6.7-9.8-1.3c-7.3,18.7-18.9,35.2-33.8,48.6c2-0.3,4-0.5,6.1-0.8c-7.9-4.2-1.1-17.6,1.8-22.9
			c4.9-8.9,11.9-17.1,21.6-20.9c-1.3-3-2.6-6.1-3.9-9.1c-20.9,13.3-39.7,29.6-55.9,48.3c2.6,0.3,5.2,0.7,7.9,1
			c-5.7-10.3-1-22.8,0.5-33.6c1.1-7.5,2.8-26.3-10.2-23.8c-5.4,1-9.7,7.1-13,10.9c-3.9,4.5-7.4,9.3-10.6,14.3
			c-6.4,10.2-11,21.4-14,33c3.2,0.9,6.4,1.8,9.6,2.7c3.3-20,5.6-40.2,6.6-60.5c0.2-3.2-3.3-5.7-6.3-4.8
			c-12.9,3.8-22.2,13.7-29.1,24.9c-7.5,12.1-12,26.3-21.6,37.2c-0.5,0.6-2.6,3.5-3.4,3.5c-1.4,0-2.6-3.1-3-4
			c-1.5-3.2-2.3-6.7-2.7-10.1c-0.9-7.6-0.4-15.5-0.1-23.1c0.7-17,2.4-33.9,5.1-50.7c3-18.8,7.3-37.4,12.6-55.7
			c-3.2-0.9-6.4-1.8-9.6-2.7c-5.9,26.1-11.9,52.3-19.4,78.1c-6.5,22.2-13.2,46.3-26.7,65.4c-5.7,8-13.6,15.6-23.2,18.6
			c-13.5,4.2-10-13.1-8.7-20.8c4.3-24.2,11.4-47.9,21.4-70.4c5.5-12.4,11.8-24.3,18.8-35.9c3.6-5.9,7.4-11.7,11.4-17.3
			c0.6-0.8,10.7-14.6,11.8-11C80.1,25.3,89.8,22.6,88,16.4L88,16.4z"/>
	</g>
</g>
</svg>
